<svg xmlns="http://www.w3.org/2000/svg" viewBox="0 0 100 120" shape-rendering="crispEdges">
<rect width="100" height="120" fill="#b0b0b0"/>
<rect x="26" y="102" width="48" height="10" fill="#1a1a8c" rx="3"/>
<rect x="30" y="92" width="40" height="12" fill="#2244aa" rx="2"/>
<rect x="30" y="54" width="40" height="40" fill="#1a1a8c"/>
<rect x="33" y="56" width="34" height="36" fill="#2244aa"/>
<rect x="26" y="44" width="14" height="14" fill="#1a1a8c"/>
<rect x="43" y="44" width="14" height="14" fill="#1a1a8c"/>
<rect x="60" y="44" width="14" height="14" fill="#1a1a8c"/>
<rect x="28" y="46" width="10" height="10" fill="#2244aa"/>
<rect x="45" y="46" width="10" height="10" fill="#2244aa"/>
<rect x="62" y="46" width="10" height="10" fill="#2244aa"/>
<rect x="26" y="54" width="48" height="6" fill="#1a1a8c"/>
<rect x="28" y="55" width="44" height="4" fill="#6688dd" opacity="0.4"/>
<rect x="36" y="68" width="4" height="20" fill="#6688dd" opacity="0.3"/>
<rect x="46" y="68" width="4" height="20" fill="#6688dd" opacity="0.3"/>
<rect x="56" y="68" width="4" height="20" fill="#6688dd" opacity="0.3"/>
</svg>