<svg xmlns="http://www.w3.org/2000/svg" viewBox="0 0 100 120" shape-rendering="crispEdges">
<rect width="100" height="120" fill="#b0b0b0"/>
<path d="M50,8 L82,22 L86,68 L50,112 L14,68 L18,22 Z" fill="#00103a"/>
<path d="M50,11 L79,24 L83,68 L50,109 L17,68 L21,24 Z" fill="#001a5e"/>

<rect x="48" y="56" width="4" height="30" fill="#4a8000"/>
<ellipse cx="38" cy="68" rx="10" ry="5" fill="#3a7000" transform="rotate(-20,38,68)"/>
<ellipse cx="62" cy="68" rx="10" ry="5" fill="#3a7000" transform="rotate(20,62,68)"/>
<ellipse cx="50" cy="33" rx="7" ry="12" fill="#ff8db4"/>
<ellipse cx="50" cy="33" rx="7" ry="12" fill="#ff8db4" transform="rotate(72,50,50)"/>
<ellipse cx="50" cy="33" rx="7" ry="12" fill="#ff8db4" transform="rotate(144,50,50)"/>
<ellipse cx="50" cy="33" rx="7" ry="12" fill="#ff8db4" transform="rotate(216,50,50)"/>
<ellipse cx="50" cy="33" rx="7" ry="12" fill="#ff8db4" transform="rotate(288,50,50)"/>
<circle cx="50" cy="50" r="8" fill="#ffec00"/>
<circle cx="50" cy="50" r="5" fill="#ff8800"/>
</svg>